<!-- Generator: Adobe Illustrator 24.0.0, SVG Export Plug-In  -->
<svg version="1.1" xmlns="http://www.w3.org/2000/svg" xmlns:xlink="http://www.w3.org/1999/xlink" x="0px" y="0px" width="95.4px"
     height="95.6px" viewBox="0 0 95.4 95.6" style="enable-background:new 0 0 95.4 95.6;" xml:space="preserve">
<style type="text/css">
	.st0{fill:none;stroke:#8C8C8C;stroke-width:11;stroke-miterlimit:10;}
	.st1{fill:#9ACD32;}
</style>
  <defs>
</defs>
  <g>
	<circle class="st0" cx="47.8" cy="47.9" r="42.2">


	</circle>
    <g>
		<path class="st1" d="M30.1,89C14.2,82.1,3,66.3,3,47.8C3,23.1,23.1,3,47.7,3C61,3,72.9,8.8,81.1,18c1.3,0,2.6,0,4,0
			C76.3,7,62.8,0,47.7,0C21.4,0,0,21.5,0,47.8c0,20.3,12.7,37.7,30.6,44.6L30.1,89z"/>
		<animateTransform attributeName="transform"
						  attributeType="XML"
						  type="rotate"
						  from="0 0 0"
						  to="360 0 0"
						  dur="10s"
						  repeatCount="indefinite"/>
	</g>
    <g>
		<path class="st1" d="M7,47.8C7,25.3,25.3,7,47.7,7C66.5,7,82.3,19.9,87,37.2c1.3,0,2.1,0,3.1,0C85.4,18.2,68.2,4,47.7,4
			C23.6,4,4,23.7,4,47.8c0,16.7,9.4,31.3,23.2,38.7l1.2-2.8C15.7,76.8,7,63.3,7,47.8z"/>
	</g>
    <g>
		<path class="st1" d="M11.1,48.1c0-20.3,16.5-36.8,36.7-36.8c18.7,0,34.1,14.1,36.4,32.2c0.8,0,2.1,0,3.1,0
			C84.9,23.7,68.1,8.3,47.7,8.3C25.8,8.3,8,26.2,8,48.1c0,10.5,4.1,20,10.7,27.2c0.7-0.7,1.4-1.4,2.1-2.1
			C14.8,66.5,11.1,57.8,11.1,48.1z"/>
	</g>
    <g>
		<path class="st1" d="M17.8,61.1c-1.8-4-2.7-8.4-2.7-13.1c0-18.1,14.7-32.8,32.7-32.8c18,0,32.7,14.7,32.7,32.8c0,0.2,0,0.3,0,0.5
			c1.2,0,2,0,3,0c0-0.2,0-0.3,0-0.5c0-19.7-16-35.8-35.7-35.8S12,28.3,12,48c0,5,1.1,9.9,2.9,14.2L17.8,61.1z"/>
	</g>
    <g>
		<path class="st1" d="M47.7,19.2c15,0,27.3,11.6,28.5,26.2c0.9,0,2.2,0,3,0C78,29,64.4,16.1,47.7,16.1c-16.3,0-29.7,12.4-31.5,28.2
			c0.8,0,2.1,0,3.1,0C21,30.2,33.1,19.2,47.7,19.2z"/>
	</g>
    <g>
		<path class="st1" d="M47.7,23.1c12,0,22.1,8.7,24.2,20.2c0.8,0,2.1,0,3.1,0c-2.2-13.2-13.6-23.2-27.3-23.2
			c-9.5,0-17.9,4.8-22.9,12.2l2.3,1.9C31.6,27.5,39.2,23.1,47.7,23.1z"/>
	</g>
    <g>
		<path class="st1" d="M47.7,27.1c8.3,0,15.5,5,18.7,12.1c1.1,0,2.2,0,3.3,0c-3.4-8.9-12-15.1-22.1-15.2c-4.8,0-10.2,2.3-10.2,2.3
			l1.3,2.8C41.5,27.9,44.5,27.1,47.7,27.1z"/>
	</g>
</g>
</svg>
