<svg xmlns="http://www.w3.org/2000/svg" viewBox="0 0 535.25 314.06">
  <defs>
    <style>
      .cls-1, .cls-19 {
        font-size: 28px;
        font-family: NewsGothicBT-Light, News Gothic Light BT;
        font-weight: 300;
      }

      .cls-1, .cls-19, .cls-38 {
        fill: #919191;
      }

      .cls-1 {
        letter-spacing: 0.04em;
      }

      .cls-2 {
        letter-spacing: 0.07em;
      }

      .cls-3 {
        letter-spacing: 0.06em;
      }

      .cls-4 {
        letter-spacing: 0.04em;
      }

      .cls-5 {
        letter-spacing: 0.08em;
      }

      .cls-6 {
        letter-spacing: 0.02em;
      }

      .cls-7 {
        letter-spacing: 0.08em;
      }

      .cls-8 {
        letter-spacing: 0.05em;
      }

      .cls-9 {
        letter-spacing: 0.04em;
      }

      .cls-10 {
        letter-spacing: 0.07em;
      }

      .cls-11 {
        letter-spacing: 0.05em;
      }

      .cls-12 {
        letter-spacing: 0.07em;
      }

      .cls-13 {
        letter-spacing: 0.05em;
      }

      .cls-14 {
        letter-spacing: 0.04em;
      }

      .cls-15 {
        letter-spacing: 0.04em;
      }

      .cls-16 {
        letter-spacing: 0.07em;
      }

      .cls-17 {
        letter-spacing: 0.08em;
      }

      .cls-18 {
        letter-spacing: 0.04em;
      }

      .cls-19 {
        letter-spacing: 0.06em;
      }

      .cls-20 {
        letter-spacing: 0.05em;
      }

      .cls-21 {
        letter-spacing: 0.08em;
      }

      .cls-22 {
        letter-spacing: 0.06em;
      }

      .cls-23 {
        letter-spacing: -0.01em;
      }

      .cls-24 {
        letter-spacing: 0.06em;
      }

      .cls-25 {
        letter-spacing: 0.06em;
      }

      .cls-26 {
        letter-spacing: 0.05em;
      }

      .cls-27 {
        letter-spacing: 0.05em;
      }

      .cls-28 {
        letter-spacing: 0.06em;
      }

      .cls-29 {
        letter-spacing: 0.08em;
      }

      .cls-30 {
        letter-spacing: 0.05em;
      }

      .cls-31 {
        letter-spacing: 0.04em;
      }

      .cls-32 {
        letter-spacing: 0.05em;
      }

      .cls-33 {
        letter-spacing: 0.04em;
      }

      .cls-34 {
        letter-spacing: 0.06em;
      }

      .cls-35 {
        letter-spacing: 0.06em;
      }

      .cls-36 {
        letter-spacing: 0.04em;
      }

      .cls-37 {
        letter-spacing: 0.07em;
      }

      .cls-39 {
        fill: none;
        stroke: #919191;
        stroke-miterlimit: 10;
        stroke-width: 11px;
      }

      .cls-40 {
        fill: #9bc65a;
      }

      .cls-41 {
        isolation: isolate;
      }
    </style>
  </defs>
  <title>RECO</title>
  <g id="ECOLOGY_RECOVERING_IN_THE_MATERIAL_RECYCLING" data-name="ECOLOGY RECOVERING IN THE MATERIAL RECYCLING">
    <text id="ECOLOGY_RECOVERING_IN_THE_MATERIAL_RECYCLING-2" data-name="ECOLOGY RECOVERING IN THE MATERIAL RECYCLING" class="cls-1" transform="translate(49.08 233.66) scale(1.2 1)">E<tspan class="cls-2" x="16.55" y="0">C</tspan><tspan class="cls-3" x="35.32" y="0">O</tspan><tspan class="cls-4" x="55.41" y="0">L</tspan><tspan class="cls-5" x="70.8" y="0">O</tspan><tspan class="cls-6" x="91.47" y="0">G</tspan><tspan class="cls-7" x="110.39" y="0">Y </tspan><tspan class="cls-8" x="138.61" y="0">R</tspan><tspan class="cls-9" x="157.75" y="0">E</tspan><tspan class="cls-10" x="174.3" y="0">C</tspan><tspan class="cls-11" x="193.07" y="0">O</tspan><tspan class="cls-12" x="213.03" y="0">V</tspan><tspan class="cls-13" x="230.41" y="0">E</tspan><tspan class="cls-14" x="247.4" y="0">R</tspan><tspan class="cls-15" x="266.37" y="0">I</tspan><tspan class="cls-16" x="275.42" y="0">N</tspan><tspan class="cls-17" x="297.37" y="0">G </tspan><tspan class="cls-18" x="328.62" y="0">I</tspan><tspan class="cls-17" x="337.66" y="0">N </tspan></text>
    <text class="cls-19" transform="translate(48.79 267.26) scale(1.17 1)">T<tspan class="cls-20" x="16.72" y="0">H</tspan><tspan class="cls-21" x="38.18" y="0">E </tspan><tspan class="cls-22" x="66.43" y="0">M</tspan><tspan class="cls-23" x="91.52" y="0">A</tspan><tspan class="cls-24" x="107.77" y="0">T</tspan><tspan class="cls-25" x="124.58" y="0">E</tspan><tspan class="cls-26" x="141.57" y="0">R</tspan><tspan class="cls-27" x="160.57" y="0">I</tspan><tspan class="cls-28" x="169.91" y="0">A</tspan><tspan class="cls-29" x="187.89" y="0">L </tspan><tspan class="cls-30" x="214.94" y="0">R</tspan><tspan class="cls-31" x="234.09" y="0">E</tspan><tspan class="cls-32" x="250.65" y="0">C</tspan><tspan class="cls-33" x="268.78" y="0">Y</tspan><tspan class="cls-34" x="285.21" y="0">C</tspan><tspan class="cls-35" x="303.51" y="0">L</tspan><tspan class="cls-36" x="319.43" y="0">I</tspan><tspan class="cls-37" x="328.5" y="0">N</tspan><tspan class="cls-21" x="350.46" y="0" xml:space="preserve">G  </tspan></text>
  </g>
  <g id="RECO">
    <g>
      <path class="cls-38" d="M52.58,78.38h20q13.85,0,22.54,14.47A25.76,25.76,0,0,1,98,104.59v1q0,13.58-13.2,22.28l-.64.31,20.49,36.66a4.56,4.56,0,0,1,.59,2.26h0q0,5.13-6.35,6.22h-.38A6.69,6.69,0,0,1,93.86,171a10.58,10.58,0,0,1-1.76-2.29L70.48,131.44H59.81v35.62q0,5.13-6.35,6.22h-.38q-5.26,0-6.47-6.54V85.49Q47.38,78.38,52.58,78.38Zm7.23,13v27H71.56q9.9,0,13.07-10.73l.19-1.72v-1.77q0-7.82-8.88-11.94a28.69,28.69,0,0,0-8.19-.82Z"/>
      <path class="cls-38" d="M119,78.19h46.78l1.2,0c4,0,6.1,2.18,6.74,7q-1.34,6.22-7.18,6.22H124.29v28.69h26.92l3.42-.25q4.83,0,6.29,6.54,0,4.63-5.46,6.92l-5.21-.26h-26v27h43.36q5,0,6.09,7.11-1.85,6.09-6.28,6.1H117.37c-4.19-.77-6.28-2.92-6.28-6.48V84.54c.63-4.24,2.16-6.35,4.57-6.35"/>
      <path class="cls-38" d="M221,78.6q14.79,0,27.86,9.27a10,10,0,0,1,1.4,4.12v.51q0,5.77-6.79,6.48h-.83L234,94.53Q226,92,221,92,204.79,92,193,106.78q-5.91,9.91-5.91,19.3,0,18.92,17.78,30a33.64,33.64,0,0,0,15.61,4.06h.7q10,0,20.76-6.73h2.22q6,1.34,6,6.22v.7q0,6.46-17.46,11.68a39.73,39.73,0,0,1-11,1.52h-1.21q-23.47,0-39.29-21.71a50,50,0,0,1-7.49-25.77q0-24.69,22.47-40.18A47.21,47.21,0,0,1,221,78.6Z"/>
    </g>
  </g>
  <g id="kisspng-logo-brand-trademark-material-economic-recovery-5b51f92a0b0447.4386310615320988580451_Изображение" data-name="kisspng-logo-brand-trademark-material-economic-recovery-5b51f92a0b0447.4386310615320988580451 Изображение">
    <g>
      <circle class="cls-39" cx="301.38" cy="126.11" r="42.15"/>
      <path class="cls-40" d="M283.74,167.17a44.77,44.77,0,1,1,50.92-71h4a47.76,47.76,0,1,0-54.46,74.44Z"/>
      <path class="cls-40" d="M260.65,126a40.67,40.67,0,0,1,80-10.61h3.14a43.73,43.73,0,1,0-62.94,49.28l1.2-2.79A40.83,40.83,0,0,1,260.65,126Z"/>
      <path class="cls-40" d="M264.66,126.27a36.66,36.66,0,0,1,73.06-4.54h3.06a39.71,39.71,0,1,0-68.43,31.69l2.14-2.14A36.69,36.69,0,0,1,264.66,126.27Z"/>
      <path class="cls-40" d="M271.41,139.09A32.68,32.68,0,1,1,334,126c0,.17,0,.34,0,.51h3c0-.17,0-.34,0-.51a35.7,35.7,0,1,0-68.45,14.21Z"/>
      <path class="cls-40" d="M301.34,97.25a28.72,28.72,0,0,1,28.53,26.23h3a31.66,31.66,0,0,0-63.05-1h3.05A28.72,28.72,0,0,1,301.34,97.25Z"/>
      <path class="cls-40" d="M301.34,101.26a24.7,24.7,0,0,1,24.21,20.2h3.08a27.62,27.62,0,0,0-50.17-11l2.34,2A24.61,24.61,0,0,1,301.34,101.26Z"/>
      <path class="cls-40" d="M301.34,105.28a20.61,20.61,0,0,1,18.74,12.13h3.31a23.75,23.75,0,0,0-22.05-15.17c-4.82,0-10.21,2.32-10.21,2.32l1.26,2.8A20.38,20.38,0,0,1,301.34,105.28Z"/>
    </g>
  </g>
  <g id="Фигура_1" data-name="Фигура 1" class="cls-41">
    <g id="Фигура_1-2" data-name="Фигура 1">
      <polygon class="cls-38" points="481.38 189.29 46.67 189.14 46.7 190.97 481.4 191.12 481.38 189.29"/>
    </g>
  </g>
  <g id="_logy" data-name="logy">
    <g>
      <path class="cls-40" d="M362,78.55h0c3.42,0,5.49,2.28,6.21,7l0,74.81h3c3,0,5,2.11,5.82,6.33v.51q-1.05,6.39-6.32,6.39h-9c-3.44,0-5.54-2.17-6.33-6.52V85.58C355.89,80.9,358.61,78.55,362,78.55Z"/>
      <path class="cls-40" d="M397.8,139.4a17.3,17.3,0,0,1,17.11,17.1q0,9.62-9.08,15.11a17.1,17.1,0,0,1-7.68,2h-.95q-6.93,0-12.86-6.48a18.14,18.14,0,0,1-3.65-10.63q0-8.34,7.36-14A17.27,17.27,0,0,1,397.8,139.4Zm-10.48,16.75v.57q0,5.94,5.75,9.21a9.37,9.37,0,0,0,4.38,1h.7q6.12,0,9.39-6.38a11,11,0,0,0,.73-3.88v-.57q0-4.92-4.54-8.31a10.39,10.39,0,0,0-6.06-1.81q-6.69,0-9.84,7A10.53,10.53,0,0,0,387.32,156.15Z"/>
      <path class="cls-40" d="M433.22,139.4q7.65,0,13.23,6.34,3.89,5.31,3.88,10.06l-.13,4v14.25q0,4.48-6.54,9.49a18.73,18.73,0,0,1-10.44,3.27q-9.33,0-15.43-8.31a7.12,7.12,0,0,1-1.2-2.89v-.35c0-1.54,1-2.54,3-3H420q2.25,0,3.52,3.42a11.9,11.9,0,0,0,9.68,4.86,11.2,11.2,0,0,0,10.41-6.22l.19-1.27V170a14.49,14.49,0,0,1-10.25,3.62h-.95q-6.93,0-12.86-6.47a18.19,18.19,0,0,1-3.65-10.64q0-8.34,7.36-14A17.27,17.27,0,0,1,433.22,139.4Zm-10.6,16.75v.57c0,4.41,2.32,7.68,6.95,9.84a11.62,11.62,0,0,0,3.3.54h.7q6.44,0,9.74-6.92a14.31,14.31,0,0,0,.51-3.2v-.73q0-6.57-7-9.84a16,16,0,0,0-3.36-.51H433q-6.45,0-9.75,6.83A10.78,10.78,0,0,0,422.62,156.15Z"/>
      <path class="cls-40" d="M466.73,162.72q7.9-19.26,8.54-20a3.61,3.61,0,0,1,2.32-.92q3,.57,3,3v.2q-.12,1-11,26.94-5.17,12.85-6,13.87a6,6,0,0,1-2.07.95c-2.14-.46-3.2-1.42-3.2-2.89v-.53c0-.41,1.64-4.56,4.92-12.48l-10.48-25.55V145q.6-3,3.18-3t4.09,5Q465.24,159.07,466.73,162.72Z"/>
    </g>
  </g>
</svg>
